<?xml version="1.0" ?><svg enable-background="new 0 0 24 24" id="Layer_1" version="1.1" viewBox="0 0 24 24" xml:space="preserve" xmlns="http://www.w3.org/2000/svg" xmlns:xlink="http://www.w3.org/1999/xlink"><g><path clip-rule="evenodd" d="   M22,20.5H2c-0.8284271,0-1.5-0.6715736-1.5-1.5V5c0-0.8284273,0.6715729-1.5,1.5-1.5h20c0.8284264,0,1.5,0.6715727,1.5,1.5v14   C23.5,19.8284264,22.8284264,20.5,22,20.5z" fill="none" fill-rule="evenodd" stroke="#303C42" stroke-linecap="round" stroke-linejoin="round" stroke-miterlimit="10"/><g><path d="M11.9748392,10.4092436l-0.2731171,1.0953665c0.3097353,0.0772047,1.2645769,0.392128,1.4192915-0.2276487    C13.2819853,10.6304836,12.2845745,10.4864483,11.9748392,10.4092436z" fill="#303C42"/><path d="M13.2090521,7.1498456c-2.6783762-0.6676865-5.3915401,0.9624696-6.0590739,3.641151    C6.4816809,13.4693727,8.11199,16.1822319,10.790061,16.850071c2.6791391,0.6678391,5.3924551-0.9621649,6.0602942-3.6405411    C17.5181961,10.5308495,15.8880386,7.8176851,13.2090521,7.1498456z M14.0084152,13.4229889    c-0.2961569,0.8462038-0.9996996,0.9176111-1.9351625,0.7404671l-0.227191,0.9099827l-0.548522-0.1367111l0.2239866-0.8977766    c-0.1422043-0.0352459-0.2874594-0.0727806-0.4371395-0.1133661l-0.2249022,0.9018955l-0.5480652-0.1367111l0.2270384-0.9116602    c-0.1280136-0.0328054-0.258317-0.0677452-0.3910608-0.1010075l-0.7139177-0.1779079l0.2723532-0.6280165    c0,0,0.4041824,0.1074162,0.3986902,0.0994825c0.1553259,0.0384493,0.2242908-0.0628633,0.2514505-0.1303034l0.3588657-1.438364    c0.0201406,0.0047302,0.0396709,0.0097647,0.0579805,0.0143423c-0.0219717-0.0088501-0.0418062-0.0143423-0.057065-0.0183096    l0.2558756-1.0268583c0.0067139-0.1165705-0.0334148-0.2636566-0.2555704-0.3190432    c0.0085449-0.0057983-0.3985367-0.0990238-0.3985367-0.0990238l0.146018-0.5860567l0.7566404,0.1888933l-0.0006104,0.0028982    c0.1136723,0.0282278,0.2308531,0.0550814,0.3503227,0.0822401l0.2249012-0.90098l0.5482178,0.1367111l-0.2203245,0.8834333    c0.1472387,0.0335674,0.295393,0.06744,0.4395809,0.1034489l0.2187796-0.877636l0.5486937,0.1367111l-0.2247496,0.9014387    c0.6927099,0.2384815,1.1994257,0.5962791,1.0997915,1.2616777c-0.0720177,0.4870329-0.342083,0.7227678-0.700491,0.8054657    C13.9965134,12.3486786,14.2470484,12.7417221,14.0084152,13.4229889z" fill="#303C42"/><path d="M11.5639429,12.0575571l-0.3013439,1.2076645    c0.3719883,0.0924635,1.5190792,0.4607897,1.6885948-0.2206297    C13.1284904,12.3340302,11.9357786,12.1503248,11.5639429,12.0575571z" fill="#303C42"/></g></g><g/><g/><g/><g/><g/><g/><g/><g/><g/><g/><g/><g/><g/><g/><g/></svg>